<svg data-v-423bf9ae="" xmlns="http://www.w3.org/2000/svg" viewBox="0 0 524 90" class="iconLeft"><!----><!----><!----><g data-v-423bf9ae="" id="c3787000-b386-4828-9b8a-54095b979662" fill="#000000" transform="matrix(4.60829496383667,0,0,4.60829496383667,78.46480560302734,-6.4746551513671875)"><path d="M1.26 14.88L2.66 14.88L2.66 12.25L3.99 10.67L7.43 14.88L9.14 14.88L4.84 9.66L8.69 5.08L7.01 5.08L2.69 10.26L2.66 10.26L2.66 5.08L1.26 5.08ZM11.48 12.01L14.29 12.01L14.29 13.73L11.48 13.73ZM11.75 14.95L13.30 14.95L14.29 14.38L15.29 14.95L15.65 14.95L15.65 8.82L14.03 7.88L10.82 7.88L10.82 9.10L14.29 9.10L14.29 10.79L11.75 10.79L10.12 11.73L10.12 14.01ZM23.84 8.75L22.22 7.81L20.24 7.81L19.25 8.39L18.91 7.81L17.89 7.81L17.89 14.88L19.25 14.88L19.25 9.03L22.48 9.03L22.48 14.88L23.84 14.88ZM27.16 12.01L29.97 12.01L29.97 13.73L27.16 13.73ZM27.43 14.95L28.98 14.95L29.97 14.38L30.97 14.95L31.33 14.95L31.33 8.82L29.71 7.88L26.50 7.88L26.50 9.10L29.97 9.10L29.97 10.79L27.43 10.79L25.80 11.73L25.80 14.01ZM35.20 14.88L36.61 14.88L36.61 13.66L34.93 13.66L34.93 4.66L33.57 4.66L33.57 13.94ZM39.09 12.01L41.90 12.01L41.90 13.73L39.09 13.73ZM39.35 14.95L40.91 14.95L41.90 14.38L42.90 14.95L43.26 14.95L43.26 8.82L41.64 7.88L38.43 7.88L38.43 9.10L41.90 9.10L41.90 10.79L39.35 10.79L37.73 11.73L37.73 14.01ZM50.68 10.47L54.03 10.47L54.03 9.21L50.68 9.21L50.68 6.34L54.87 6.34L54.87 5.08L49.28 5.08L49.28 14.88L54.87 14.88L54.87 13.62L50.68 13.62ZM55.85 14.88L57.32 14.88L59.07 12.32L60.82 14.88L62.29 14.88L59.77 11.31L62.20 7.88L60.69 7.88L59.07 10.29L57.44 7.88L55.93 7.88L58.35 11.31ZM68.15 14.95L69.78 14.01L69.78 8.75L68.15 7.81L66.04 7.81L65.04 8.39L64.71 7.81L63.69 7.81L63.69 17.68L65.04 17.68L65.04 14.38L66.04 14.95ZM65.04 9.03L68.42 9.03L68.42 13.73L65.04 13.73ZM77.97 14.01L77.97 8.75L76.34 7.81L73.64 7.81L72.02 8.75L72.02 14.01L73.64 14.95L76.34 14.95ZM73.37 9.03L76.61 9.03L76.61 13.73L73.37 13.73ZM84.11 9.10L84.11 7.88L82.56 7.88L81.56 8.46L81.23 7.88L80.21 7.88L80.21 14.88L81.56 14.88L81.56 9.10ZM85.09 9.10L86.38 9.10L86.38 13.94L88.00 14.88L89.42 14.88L89.42 13.66L87.74 13.66L87.74 9.10L89.42 9.10L89.42 7.88L87.74 7.88L87.74 5.92L86.38 6.71L86.38 7.88L85.09 7.88ZM96.64 11.66L95.02 10.72L92.74 10.72L92.74 9.10L96.50 9.10L96.50 7.88L93.00 7.88L91.38 8.82L91.38 11.00L93.00 11.94L95.28 11.94L95.28 13.66L91.38 13.66L91.38 14.88L95.02 14.88L96.64 13.94Z"></path></g><defs data-v-423bf9ae=""><linearGradient data-v-423bf9ae="" gradientTransform="rotate(25)" id="90667a72-f057-4696-83c4-1ddf45e8703d" x1="0%" y1="0%" x2="100%" y2="0%"><stop data-v-423bf9ae="" offset="0%" style="stop-color: rgb(18, 38, 99); stop-opacity: 1;"></stop><stop data-v-423bf9ae="" offset="100%" style="stop-color: rgb(93, 215, 173); stop-opacity: 1;"></stop></linearGradient></defs><g data-v-423bf9ae="" id="39d9f251-9133-45f2-99b5-73eb6db00f49" transform="matrix(2.8125,0,0,2.8125,-12.426002502441406,0)" stroke="none" fill="url(#90667a72-f057-4696-83c4-1ddf45e8703d)"><path d="M27.377 11.377L16 0 4.623 11.377 16 22.753l11.377-11.376zM16 6.026l5.35 5.35L16 16.727l-5.35-5.35L16 6.026zM27.426 14.969l-5.664 5.664V32h5.664zM10.238 20.633l-5.664-5.664V32h5.664z"></path></g><!----></svg>